<svg version="1.1" id="Layer_1" xmlns="http://www.w3.org/2000/svg" xmlns:xlink="http://www.w3.org/1999/xlink" x="0px" y="0px"
	 width="100%" viewBox="0 0 953 953" enable-background="new 0 0 953 953" xml:space="preserve">
<path fill="#000000" opacity="1.000000" stroke="none"
	d="
M610.000000,954.000000
	C406.666656,954.000000 203.833328,954.000000 1.000000,954.000000
	C1.000000,636.333313 1.000000,318.666656 1.000000,1.000000
	C318.666656,1.000000 636.333313,1.000000 954.000000,1.000000
	C954.000000,318.666656 954.000000,636.333313 954.000000,954.000000
	C839.500000,954.000000 725.000000,954.000000 610.000000,954.000000
M605.037231,316.369995
	C607.526489,316.595734 610.055786,316.613586 612.498169,317.082977
	C623.412170,319.180389 634.868713,319.945526 645.074341,323.908600
	C663.042480,330.886017 675.171387,345.072144 683.152527,362.302002
	C685.841614,368.107269 687.095032,375.170197 686.908569,381.597595
	C686.450745,397.388245 679.383606,410.930756 668.476868,421.915710
	C664.170837,426.252625 657.669067,429.209930 651.638916,430.834625
	C643.858093,432.931000 635.571045,433.466583 627.459167,433.941467
	C615.498291,434.641724 603.484985,434.434723 591.521606,435.106598
	C581.816833,435.651642 577.170410,440.041016 575.032776,449.510101
	C574.557678,451.614502 574.032288,453.764862 573.995422,455.902130
	C573.549377,481.708160 573.142822,507.515198 572.863892,533.323486
	C572.824585,536.960205 573.317932,540.638184 573.912903,544.239563
	C575.754211,555.385559 580.618103,559.952026 592.096802,559.961060
	C608.564087,559.973938 625.082336,559.992981 641.487549,558.777832
	C664.899353,557.043823 687.344116,550.917664 708.462891,540.473572
	C742.472778,523.654236 766.536865,496.653534 786.107056,464.886963
	C802.986938,437.487488 811.227966,407.777039 810.925964,375.745422
	C810.664062,347.976501 805.144653,321.160156 793.909058,295.723206
	C777.851685,259.370148 754.161255,229.672134 718.023743,211.362747
	C702.124573,203.307312 685.875610,195.524368 667.825867,194.299759
	C643.738953,192.665527 619.578674,191.545227 595.440308,191.340424
	C512.289551,190.634872 429.134796,190.179611 345.981171,190.103775
	C283.329315,190.046646 220.676590,190.687317 158.024765,191.093231
	C147.939484,191.158554 147.090744,192.520569 148.251877,202.698441
	C149.722977,215.593246 151.189713,228.499115 152.162445,241.437500
	C153.360992,257.379547 153.790237,273.380280 155.040115,289.317322
	C156.020508,301.818481 161.718842,308.793762 174.085800,310.960236
	C185.994247,313.046417 198.196640,314.375885 210.274246,314.408264
	C252.259933,314.520782 294.250732,314.151917 336.233704,313.552826
	C425.550873,312.278259 514.853882,311.770386 605.037231,316.369995
M527.598572,629.440491
	C527.675171,557.609985 527.839111,485.779388 527.767029,413.949036
	C527.748962,395.956360 526.835388,377.966034 526.625671,359.971222
	C526.561157,354.439697 524.599243,352.236298 518.913269,351.809479
	C474.474640,348.473785 430.036102,348.235016 385.571472,351.080933
	C382.109467,351.302490 379.933258,352.595306 380.198669,356.535858
	C380.332458,358.521759 380.069733,360.531281 380.058777,362.530518
	C379.772430,414.693329 379.133667,466.857361 379.302063,519.018799
	C379.554413,597.180664 380.409576,675.340515 380.862915,753.502075
	C380.888824,757.973450 382.446014,759.856079 386.729095,760.125610
	C397.186401,760.783875 407.645355,762.287170 418.087280,762.154846
	C449.886871,761.751892 481.705200,761.267517 513.459778,759.682983
	C525.205566,759.096802 524.529358,760.879089 524.912231,747.373169
	C526.017090,708.394653 526.723938,669.404724 527.598572,629.440491
z"/>
<path fill="#FEFEFE" opacity="1.000000" stroke="none"
	d="
M604.572876,316.340546
	C514.853882,311.770386 425.550873,312.278259 336.233704,313.552826
	C294.250732,314.151917 252.259933,314.520782 210.274246,314.408264
	C198.196640,314.375885 185.994247,313.046417 174.085800,310.960236
	C161.718842,308.793762 156.020508,301.818481 155.040115,289.317322
	C153.790237,273.380280 153.360992,257.379547 152.162445,241.437500
	C151.189713,228.499115 149.722977,215.593246 148.251877,202.698441
	C147.090744,192.520569 147.939484,191.158554 158.024765,191.093231
	C220.676590,190.687317 283.329315,190.046646 345.981171,190.103775
	C429.134796,190.179611 512.289551,190.634872 595.440308,191.340424
	C619.578674,191.545227 643.738953,192.665527 667.825867,194.299759
	C685.875610,195.524368 702.124573,203.307312 718.023743,211.362747
	C754.161255,229.672134 777.851685,259.370148 793.909058,295.723206
	C805.144653,321.160156 810.664062,347.976501 810.925964,375.745422
	C811.227966,407.777039 802.986938,437.487488 786.107056,464.886963
	C766.536865,496.653534 742.472778,523.654236 708.462891,540.473572
	C687.344116,550.917664 664.899353,557.043823 641.487549,558.777832
	C625.082336,559.992981 608.564087,559.973938 592.096802,559.961060
	C580.618103,559.952026 575.754211,555.385559 573.912903,544.239563
	C573.317932,540.638184 572.824585,536.960205 572.863892,533.323486
	C573.142822,507.515198 573.549377,481.708160 573.995422,455.902130
	C574.032288,453.764862 574.557678,451.614502 575.032776,449.510101
	C577.170410,440.041016 581.816833,435.651642 591.521606,435.106598
	C603.484985,434.434723 615.498291,434.641724 627.459167,433.941467
	C635.571045,433.466583 643.858093,432.931000 651.638916,430.834625
	C657.669067,429.209930 664.170837,426.252625 668.476868,421.915710
	C679.383606,410.930756 686.450745,397.388245 686.908569,381.597595
	C687.095032,375.170197 685.841614,368.107269 683.152527,362.302002
	C675.171387,345.072144 663.042480,330.886017 645.074341,323.908600
	C634.868713,319.945526 623.412170,319.180389 612.498169,317.082977
	C610.055786,316.613586 607.526489,316.595734 604.572876,316.340546
z"/>
<path fill="#FEFEFE" opacity="1.000000" stroke="none"
	d="
M527.592834,629.929932
	C526.723938,669.404724 526.017090,708.394653 524.912231,747.373169
	C524.529358,760.879089 525.205566,759.096802 513.459778,759.682983
	C481.705200,761.267517 449.886871,761.751892 418.087280,762.154846
	C407.645355,762.287170 397.186401,760.783875 386.729095,760.125610
	C382.446014,759.856079 380.888824,757.973450 380.862915,753.502075
	C380.409576,675.340515 379.554413,597.180664 379.302063,519.018799
	C379.133667,466.857361 379.772430,414.693329 380.058777,362.530518
	C380.069733,360.531281 380.332458,358.521759 380.198669,356.535858
	C379.933258,352.595306 382.109467,351.302490 385.571472,351.080933
	C430.036102,348.235016 474.474640,348.473785 518.913269,351.809479
	C524.599243,352.236298 526.561157,354.439697 526.625671,359.971222
	C526.835388,377.966034 527.748962,395.956360 527.767029,413.949036
	C527.839111,485.779388 527.675171,557.609985 527.592834,629.929932
z"/>
</svg>