<?xml version="1.0" encoding="utf-8"?>
<svg viewBox="135.814 140.3163 68.38 7.87" xmlns="http://www.w3.org/2000/svg">
  <g data-gra="path-slogan" fill-rule="" class="tp-slogan" fill="#FFFFFF" transform="matrix(1, 0, 0, 1, 135.80999755859378, 140.3143157958984)">
    <g transform="scale(1, 1)" fill="#FFFFFF">
      <g transform="scale(1)" fill="#FFFFFF">
        <path d="M2.06-3.20L4.43-3.20L4.06-4.40Q3.84-5.06 3.65-5.72Q3.46-6.37 3.26-7.06L3.26-7.06L3.22-7.06Q3.04-6.37 2.84-5.72Q2.65-5.06 2.44-4.40L2.44-4.40L2.06-3.20ZM5.42 0L4.68-2.40L1.81-2.40L1.06 0L0.04 0L2.70-7.87L3.83-7.87L6.49 0L5.42 0ZM7.61 0L7.61-7.87L9.58-7.87Q11.40-7.87 12.35-6.86Q13.30-5.86 13.30-3.97L13.30-3.97Q13.30-3.04 13.06-2.30Q12.82-1.56 12.35-1.05Q11.88-0.54 11.20-0.27Q10.51 0 9.62 0L9.62 0L7.61 0ZM8.60-0.82L9.50-0.82Q10.88-0.82 11.57-1.64Q12.26-2.47 12.26-3.97L12.26-3.97Q12.26-5.47 11.57-6.26Q10.88-7.06 9.50-7.06L9.50-7.06L8.60-7.06L8.60-0.82ZM14.99 0L14.99-7.87L16.16-7.87L17.69-3.65L18.26-2.04L18.31-2.04L18.86-3.65L20.38-7.87L21.55-7.87L21.55 0L20.60 0L20.60-4.33Q20.60-4.86 20.65-5.50Q20.69-6.13 20.74-6.66L20.74-6.66L20.69-6.66L20.05-4.91L18.54-0.79L17.98-0.79L16.45-4.91L15.83-6.66L15.78-6.66Q15.82-6.13 15.86-5.50Q15.91-4.86 15.91-4.33L15.91-4.33L15.91 0L14.99 0ZM23.71 0L23.71-7.87L24.71-7.87L24.71 0L23.71 0ZM26.87 0L26.87-7.87L27.90-7.87L30.74-2.93L31.60-1.30L31.64-1.30Q31.61-1.90 31.57-2.54Q31.52-3.18 31.52-3.80L31.52-3.80L31.52-7.87L32.47-7.87L32.47 0L31.44 0L28.58-4.96L27.73-6.58L27.68-6.58Q27.73-5.98 27.77-5.36Q27.82-4.74 27.82-4.12L27.82-4.12L27.82 0L26.87 0ZM37.06 0L37.06-7.87L39.47-7.87Q40.12-7.87 40.66-7.75Q41.20-7.63 41.57-7.36Q41.95-7.09 42.16-6.65Q42.37-6.20 42.37-5.56L42.37-5.56Q42.37-4.93 42.16-4.48Q41.95-4.02 41.57-3.72Q41.18-3.42 40.65-3.27Q40.12-3.12 39.47-3.12L39.47-3.12L38.05-3.12L38.05 0L37.06 0ZM38.05-3.94L39.35-3.94Q40.38-3.94 40.88-4.33Q41.38-4.72 41.38-5.56L41.38-5.56Q41.38-6.41 40.87-6.74Q40.37-7.07 39.35-7.07L39.35-7.07L38.05-7.07L38.05-3.94ZM44.35-3.20L46.72-3.20L46.34-4.40Q46.13-5.06 45.94-5.72Q45.74-6.37 45.55-7.06L45.55-7.06L45.50-7.06Q45.32-6.37 45.13-5.72Q44.94-5.06 44.72-4.40L44.72-4.40L44.35-3.20ZM47.71 0L46.97-2.40L44.10-2.40L43.34 0L42.32 0L44.99-7.87L46.12-7.87L48.78 0L47.71 0ZM49.90 0L49.90-7.87L50.93-7.87L53.77-2.93L54.62-1.30L54.67-1.30Q54.64-1.90 54.59-2.54Q54.55-3.18 54.55-3.80L54.55-3.80L54.55-7.87L55.50-7.87L55.50 0L54.47 0L51.61-4.96L50.76-6.58L50.71-6.58Q50.76-5.98 50.80-5.36Q50.84-4.74 50.84-4.12L50.84-4.12L50.84 0L49.90 0ZM57.66 0L57.66-7.87L62.20-7.87L62.20-7.03L58.66-7.03L58.66-4.56L61.64-4.56L61.64-3.71L58.66-3.71L58.66-0.85L62.32-0.85L62.32 0L57.66 0ZM63.98 0L63.98-7.87L64.98-7.87L64.98-0.85L68.42-0.85L68.42 0L63.98 0Z" transform="translate(-0.036000000000000004, 7.872)" fill="#FFFFFF"/>
      </g>
    </g>
  </g>
</svg>