<?xml version="1.0" encoding="utf-8"?>
<svg viewBox="110.5651 101.8137 152.8723 32.5" xmlns="http://www.w3.org/2000/svg">
  <g transform="matrix(1, 0, 0, 1, 110.56259155273439, 101.81431579589844)" fill="#FFFFFF">
    <g data-gra="path-name" fill="#FFFFFF" transform="scale(1)">
      <path d="M6.17-24.53Q4.55-24.53 3.39-25.62Q2.23-26.71 2.23-28.23L2.23-28.23Q2.23-29.75 3.39-30.84Q4.55-31.93 6.17-31.93L6.17-31.93Q7.78-31.93 8.92-30.84Q10.06-29.75 10.06-28.23L10.06-28.23Q10.06-26.71 8.92-25.62Q7.78-24.53 6.17-24.53L6.17-24.53ZM2.09 0L2.09-21.82L10.20-21.82L10.20 0L2.09 0Z" transform="translate(-2.087506589351608, 31.929362150764366)" fill="#FFFFFF"/>
    </g>
  </g>
  <g transform="matrix(1, 0, 0, 1, 122.56259155273438, 101.81431579589844)" fill="#FFFFFF">
    <g data-gra="path-name" fill="#FFFFFF" transform="scale(1)">
      <path d="M12.00-17.17L12.00-8.97Q12.00-8.11 12.05-7.19Q12.10-6.26 12.34-6.03L12.34-6.03Q12.67-5.69 14.66-5.69L14.66-5.69L16.27-5.74Q16.70-3.46 16.70-0.47L16.70-0.47Q15.80-0.14 14.07 0.14Q12.34 0.43 10.77 0.43L10.77 0.43Q7.50 0.43 5.72-1.02Q3.94-2.47 3.94-5.50L3.94-5.50L3.94-17.17L0.38-17.17L0.38-21.49L3.94-21.82L6.07-27.04L12.00-27.37L12.00-21.82L17.03-21.82L17.03-17.17L12.00-17.17Z" transform="translate(-0.37954665260938325, 31.929362150764366)" fill="#FFFFFF"/>
    </g>
  </g>
  <g transform="matrix(1, 0, 0, 1, 142.56258392333984, 101.81431579589844)" fill="#FFFFFF">
    <g data-gra="path-name" fill="#FFFFFF" transform="scale(1)">
      <path d="M21.68 0L14.94 0L14.19-2.99Q12.00 0.57 8.11 0.57L8.11 0.57Q4.93 0.57 2.92-1.21Q0.90-2.99 0.90-6.22L0.90-6.22Q0.90-8.21 2.06-9.70Q3.23-11.20 5.27-11.81L5.27-11.81Q7.92-12.57 13.47-12.67L13.47-12.67Q13.47-15.80 13.19-15.99L13.19-15.99Q12.95-16.18 11.67-16.18L11.67-16.18Q10.86-16.18 9.44-16.08L9.44-16.08Q7.16-15.99 3.27-15.56L3.27-15.56Q2.89-18.12 2.70-21.06L2.70-21.06Q5.22-21.59 7.97-21.94Q10.72-22.30 12.90-22.30L12.90-22.30Q16.70-22.30 18.60-21.04Q20.50-19.78 21.06-17.74Q21.63-15.70 21.59-12.57L21.59-12.57L21.54-5.60L21.68 0ZM10.86-4.74Q12.10-4.74 13.47-5.22L13.47-5.22L13.47-8.73L13.09-8.73Q9.58-8.73 9.20-8.35L9.20-8.35Q8.97-8.11 8.85-7.64Q8.73-7.16 8.73-6.74L8.73-6.74Q8.73-5.60 9.25-5.17Q9.77-4.74 10.86-4.74L10.86-4.74Z" transform="translate(-0.901423299947285, 31.929362150764366)" fill="#FFFFFF"/>
    </g>
  </g>
  <g transform="matrix(1, 0, 0, 1, 166.56258392333987, 101.81431579589844)" fill="#FFFFFF">
    <g data-gra="path-name" fill="#FFFFFF" transform="scale(1)">
      <path d="M23.06-20.45Q23.48-19.93 23.70-17.84Q23.91-15.75 23.91-11.48L23.91-11.48L23.91 0L15.80 0L15.80-11.39L15.80-13.33Q15.80-14.85 15.56-15.23L15.56-15.23Q15.18-15.70 13.81-15.70L13.81-15.70Q13.14-15.70 12.81-15.66L12.81-15.66Q11.48-15.61 10.06-15.04L10.06-15.04L10.06 0L1.95 0L1.95-21.82L8.54-21.82L9.44-18.17Q12.86-22.30 17.60-22.30L17.60-22.30Q19.31-22.30 20.80-21.82Q22.30-21.35 23.06-20.45L23.06-20.45Z" transform="translate(-1.9451765946230892, 31.929362150764366)" fill="#FFFFFF"/>
    </g>
  </g>
  <g transform="matrix(1, 0, 0, 1, 191.5625915527344, 101.81431579589844)" fill="#FFFFFF">
    <g data-gra="path-name" fill="#FFFFFF" transform="scale(1)">
      <path d="M6.17-24.53Q4.55-24.53 3.39-25.62Q2.23-26.71 2.23-28.23L2.23-28.23Q2.23-29.75 3.39-30.84Q4.55-31.93 6.17-31.93L6.17-31.93Q7.78-31.93 8.92-30.84Q10.06-29.75 10.06-28.23L10.06-28.23Q10.06-26.71 8.92-25.62Q7.78-24.53 6.17-24.53L6.17-24.53ZM2.09 0L2.09-21.82L10.20-21.82L10.20 0L2.09 0Z" transform="translate(-2.087506589351608, 31.929362150764366)" fill="#FFFFFF"/>
    </g>
  </g>
  <g transform="matrix(1, 0, 0, 1, 203.56259155273438, 101.81431579589844)" fill="#FFFFFF">
    <g data-gra="path-name" fill="#FFFFFF" transform="scale(1)">
      <path d="M15.66-21.82L23.77-21.82L23.77 0L17.17 0L16.27-3.65Q12.86 0.47 8.11 0.47L8.11 0.47Q6.40 0.47 4.91 0Q3.42-0.47 2.66-1.38L2.66-1.38Q2.23-1.90 2.02-3.99Q1.80-6.07 1.80-10.34L1.80-10.34L1.80-21.82L9.92-21.82L9.92-10.44Q9.92-9.49 9.96-8.21Q10.01-6.93 10.25-6.59L10.25-6.59Q10.58-6.12 12.15-6.12L12.15-6.12L12.90-6.17Q14.23-6.22 15.66-6.78L15.66-6.78L15.66-21.82Z" transform="translate(-1.8028465998945704, 31.929362150764366)" fill="#FFFFFF"/>
    </g>
  </g>
  <g transform="matrix(1, 0, 0, 1, 228.5625915527344, 101.81431579589844)" fill="#FFFFFF">
    <g data-gra="path-name" fill="#FFFFFF" transform="scale(1)">
      <path d="M36.06-20.31Q36.82-19.17 36.82-11.48L36.82-11.48L36.82 0L28.70 0L28.70-10.67L28.70-13.24Q28.70-14.99 28.37-15.32L28.37-15.32Q27.99-15.70 26.76-15.70L26.76-15.70L26.19-15.66Q24.72-15.56 23.39-14.99L23.39-14.99Q23.44-14.00 23.44-11.48L23.44-11.48L23.44 0L15.32 0L15.32-10.67L15.32-13.52Q15.32-14.99 14.99-15.32L14.99-15.32Q14.61-15.70 13.38-15.70L13.38-15.70L12.81-15.66Q11.48-15.61 10.06-15.04L10.06-15.04L10.06 0L1.95 0L1.95-21.82L8.54-21.82L9.39-18.27Q10.96-20.35 13.00-21.33Q15.04-22.30 17.13-22.30L17.13-22.30Q18.88-22.30 20.47-21.78Q22.06-21.25 22.68-20.31L22.68-20.31Q22.96-19.88 23.15-18.74L23.15-18.74Q24.67-20.59 26.62-21.44Q28.56-22.30 30.51-22.30L30.51-22.30Q32.26-22.30 33.85-21.78Q35.44-21.25 36.06-20.31L36.06-20.31Z" transform="translate(-1.9451765946230894, 31.929362150764366)" fill="#FFFFFF"/>
    </g>
  </g>
</svg>