<svg version="1.1" xmlns="http://www.w3.org/2000/svg" viewBox="0 0 299.76192139609316 509.0134276348619" width="299.76192139609316" height="509.0134276348619">
  <!-- svg-source:excalidraw -->
  
  <defs>
    <style class="style-fonts">
      
    </style>
    
  </defs>
  <g stroke-linecap="round"><g transform="translate(10.878027173876717 498.26313784005924) rotate(0 138.84287256709558 -243.45946623154856)"><path d="M-0.88 0.75 C36.22 -9.2, 176.94 22.01, 223.57 -59.16 C270.2 -140.33, 269.67 -414.95, 278.88 -486.26 M0.86 0.1 C38.23 -9.79, 179.36 23.22, 225.67 -58.17 C271.99 -139.56, 270.35 -416.96, 278.75 -488.26" stroke="#1e1e1e" stroke-width="4" fill="none"></path></g><g transform="translate(10.878027173876717 498.26313784005924) rotate(0 138.84287256709558 -243.45946623154856)"><path d="M285.9 -464.31 C284.32 -475.43, 278.6 -480.63, 278.75 -488.26 M285.9 -464.31 C283.99 -473.34, 280.62 -481.81, 278.75 -488.26" stroke="#1e1e1e" stroke-width="4" fill="none"></path></g><g transform="translate(10.878027173876717 498.26313784005924) rotate(0 138.84287256709558 -243.45946623154856)"><path d="M268.83 -465.31 C273.76 -475.93, 274.55 -480.74, 278.75 -488.26 M268.83 -465.31 C272.98 -473.97, 275.67 -482.09, 278.75 -488.26" stroke="#1e1e1e" stroke-width="4" fill="none"></path></g></g><mask></mask></svg>